<svg width="266" height="84" viewBox="0 0 266 84" fill="none" xmlns="http://www.w3.org/2000/svg">
<g clip-path="url(#clip0_42_608)">
<rect width="266" height="84" rx="42" fill="#FFA722"/>
<path d="M266 0H0V12.7946L3.27409 13.6242C85.3382 34.4163 184.547 34.103 266 12.7946V0Z" fill="white" fill-opacity="0.1"/>
<g clip-path="url(#clip1_42_608)">
<path opacity="0.3" d="M64.4962 24.1423L71.3783 31.1324L81.1451 30.2194L76.6239 38.9247L80.5103 47.9313L70.8339 46.3215L63.4691 52.8009L62.01 43.1007L53.5718 38.0985L62.3464 33.7133L64.4962 24.1423Z" fill="white"/>
<path opacity="0.3" d="M107.075 49.1806L111.875 57.7357L121.538 59.4256L114.884 66.6339L116.263 76.3459L107.352 72.2458L98.541 76.5582L99.6866 66.816L92.8626 59.7691L102.482 57.8482L107.075 49.1806Z" fill="white"/>
<path opacity="0.3" d="M218.075 49.1806L222.875 57.7357L232.538 59.4256L225.884 66.6339L227.263 76.3459L218.352 72.2458L209.541 76.5582L210.687 66.816L203.863 59.7691L213.482 57.8482L218.075 49.1806Z" fill="white"/>
<path opacity="0.3" d="M165.855 39.7778L167.58 49.4342L176.153 54.2023L167.502 58.8273L165.617 68.4538L158.545 61.6557L148.807 62.8372L153.087 54.0107L148.954 45.1144L158.671 46.4574L165.855 39.7778Z" fill="white"/>
<path opacity="0.3" d="M286.855 48.7778L288.58 58.4342L297.153 63.2023L288.502 67.8273L286.617 77.4538L279.545 70.6557L269.807 71.8372L274.087 63.0107L269.954 54.1144L279.671 55.4574L286.855 48.7778Z" fill="white"/>
<path opacity="0.3" d="M37.8549 48.7778L39.5803 58.4342L48.153 63.2023L39.5023 67.8273L37.6167 77.4538L30.5449 70.6557L20.8069 71.8372L25.0869 63.0107L20.954 54.1144L30.6711 55.4574L37.8549 48.7778Z" fill="white"/>
<path opacity="0.3" d="M191.966 13.8215L197.669 21.8029L207.458 22.4304L201.629 30.3204L204.058 39.8245L194.753 36.7194L186.464 41.9658L186.542 32.1567L178.991 25.895L188.344 22.9378L191.966 13.8215Z" fill="white"/>
<path opacity="0.3" d="M13.966 9.82148L19.6687 17.8029L29.458 18.4304L23.6295 26.3204L26.0578 35.8245L16.7528 32.7194L8.46425 37.9658L8.542 28.1567L0.991087 21.895L10.3441 18.9378L13.966 9.82148Z" fill="white"/>
<path opacity="0.3" d="M245.966 19.8215L251.669 27.8029L261.458 28.4304L255.629 36.3204L258.058 45.8245L248.753 42.7194L240.464 47.9658L240.542 38.1567L232.991 31.895L242.344 28.9378L245.966 19.8215Z" fill="white"/>
<path opacity="0.3" d="M122.966 13.8215L128.669 21.8029L138.458 22.4304L132.629 30.3204L135.058 39.8245L125.753 36.7194L117.464 41.9658L117.542 32.1567L109.991 25.895L119.344 22.9378L122.966 13.8215Z" fill="white"/>
</g>
</g>
<rect x="1.5" y="1.5" width="263" height="81" rx="40.5" stroke="url(#paint0_linear_42_608)" stroke-width="3"/>
<defs>
<linearGradient id="paint0_linear_42_608" x1="133" y1="0" x2="133" y2="84" gradientUnits="userSpaceOnUse">
<stop stop-color="white" stop-opacity="0.2"/>
<stop offset="0.491666" stop-color="#828282" stop-opacity="0.298333"/>
<stop offset="1" stop-opacity="0.4"/>
</linearGradient>
<clipPath id="clip0_42_608">
<rect width="266" height="84" rx="42" fill="white"/>
</clipPath>
<clipPath id="clip1_42_608">
<rect width="400" height="50" fill="white" transform="translate(-68 17)"/>
</clipPath>
</defs>
</svg>
